<?xml version="1.0" encoding="utf-8"?>
<!-- Generator: Adobe Illustrator 15.0.0, SVG Export Plug-In . SVG Version: 6.00 Build 0)  -->
<svg version="1.2" baseProfile="tiny" id="Ebene_1" xmlns="http://www.w3.org/2000/svg" xmlns:xlink="http://www.w3.org/1999/xlink"
	 x="0px" y="0px" width="238.58px" height="86.397px" viewBox="0 0 238.58 86.397" overflow="inherit" xml:space="preserve">
<g>
	<path d="M113.576,86.293c-0.347,0.348-0.831,0.53-1.528,0.53c-0.649,0-1.164-0.151-1.543-0.53c-0.469-0.483-0.62-0.983-0.62-2.181
		h0.605c0,0.924,0.105,1.395,0.469,1.757c0.242,0.243,0.604,0.395,1.089,0.395c0.53,0,0.879-0.151,1.105-0.395
		c0.409-0.408,0.484-0.939,0.484-1.877c0-1.422-0.227-1.968-1.181-2.359l-1.104-0.454c-1.104-0.454-1.393-1.074-1.393-2.68
		c0-0.909,0.228-1.62,0.681-2.072c0.363-0.365,0.848-0.56,1.483-0.56s1.151,0.194,1.514,0.56c0.515,0.529,0.605,1.104,0.605,1.997
		h-0.605c0-0.742-0.105-1.196-0.454-1.588c-0.243-0.274-0.59-0.426-1.074-0.426c-0.454,0-0.771,0.137-1.015,0.363
		c-0.378,0.365-0.529,0.985-0.529,1.711c0,1.362,0.182,1.785,1.257,2.226l1.104,0.451c1.12,0.455,1.316,1.349,1.316,2.817
		C114.243,85.127,114.046,85.81,113.576,86.293z"/>
	<path d="M122.156,86.293c-0.379,0.379-0.908,0.56-1.438,0.56s-1.059-0.181-1.438-0.56c-0.378-0.363-0.605-0.909-0.605-1.649v-8.688
		h0.605v8.748c0,0.982,0.636,1.603,1.438,1.603c0.803,0,1.438-0.62,1.438-1.603v-8.748h0.604v8.688
		C122.76,85.384,122.533,85.93,122.156,86.293z"/>
	<path d="M130.794,86.293c-0.348,0.348-0.832,0.53-1.528,0.53c-0.65,0-1.165-0.151-1.543-0.53c-0.47-0.483-0.62-0.983-0.62-2.181
		h0.604c0,0.924,0.105,1.395,0.47,1.757c0.241,0.243,0.604,0.395,1.089,0.395c0.529,0,0.878-0.151,1.105-0.395
		c0.408-0.408,0.484-0.939,0.484-1.877c0-1.422-0.228-1.968-1.182-2.359l-1.104-0.454c-1.104-0.454-1.392-1.074-1.392-2.68
		c0-0.909,0.227-1.62,0.681-2.072c0.363-0.365,0.847-0.56,1.482-0.56s1.151,0.194,1.515,0.56c0.514,0.529,0.605,1.104,0.605,1.997
		h-0.605c0-0.742-0.106-1.196-0.454-1.588c-0.243-0.274-0.591-0.426-1.074-0.426c-0.455,0-0.771,0.137-1.015,0.363
		c-0.379,0.365-0.53,0.985-0.53,1.711c0,1.362,0.182,1.785,1.257,2.226l1.104,0.451c1.12,0.455,1.317,1.349,1.317,2.817
		C131.461,85.127,131.264,85.81,130.794,86.293z"/>
	<path d="M139.495,86.732v-5.206h-2.876v5.206h-0.604V75.956h0.604v5.025h2.876v-5.025h0.605v10.776H139.495z"/>
	<path d="M145.001,86.732V75.956h0.605v10.776H145.001z"/>
	<path d="M161.645,86.732l-0.923-1.394c-0.695,0.894-1.331,1.514-2.603,1.514s-2.346-0.938-2.346-2.543
		c0-1.346,0.59-2.223,1.968-3.448c-1.15-1.637-1.438-2.074-1.438-2.923c0-0.982,0.59-2.071,1.967-2.071
		c1.286,0,1.968,0.8,1.968,1.951c0,1.271-0.469,1.938-1.756,3.117l2.255,3.374c0.424-0.665,0.756-1.814,0.817-2.737h0.604
		c-0.105,1.24-0.469,2.389-1.074,3.252l1.271,1.908H161.645z M158.044,81.312c-1.136,1.092-1.666,1.908-1.666,2.923
		c0,1.089,0.621,2.071,1.802,2.071c0.908,0,1.559-0.634,2.21-1.466L158.044,81.312z M158.271,76.396
		c-0.984,0-1.362,0.863-1.362,1.529c0,0.665,0.227,1.074,1.271,2.557c0.908-0.863,1.452-1.482,1.452-2.634
		C159.632,77.001,159.073,76.396,158.271,76.396z"/>
	<path d="M175.324,86.398c-0.318,0.288-0.757,0.454-1.331,0.454c-0.592,0-1.105-0.181-1.438-0.528
		c-0.636-0.651-0.757-1.257-0.757-4.98c0-3.723,0.121-4.328,0.757-4.979c0.333-0.346,0.847-0.528,1.438-0.528
		c0.634,0,1.089,0.197,1.421,0.528c0.44,0.454,0.622,1.151,0.622,1.923h-0.606c0-0.589-0.121-1.194-0.484-1.558
		c-0.211-0.214-0.529-0.348-0.952-0.348c-0.44,0-0.787,0.134-1.015,0.377c-0.484,0.528-0.575,1-0.575,4.585
		c0,3.586,0.091,4.058,0.575,4.586c0.228,0.243,0.574,0.377,1.015,0.377c0.423,0,0.741-0.134,0.952-0.346
		c0.363-0.365,0.484-0.969,0.484-1.56h0.606C176.036,85.219,175.823,85.961,175.324,86.398z"/>
	<path d="M183.839,86.324c-0.332,0.348-0.847,0.528-1.437,0.528c-0.592,0-1.105-0.181-1.438-0.528
		c-0.636-0.651-0.757-1.257-0.757-4.98c0-3.723,0.121-4.328,0.757-4.979c0.333-0.346,0.847-0.528,1.438-0.528
		c0.59,0,1.104,0.183,1.437,0.528c0.636,0.651,0.758,1.257,0.758,4.979C184.597,85.067,184.475,85.673,183.839,86.324z
		 M183.416,76.759c-0.227-0.243-0.574-0.377-1.013-0.377c-0.44,0-0.787,0.134-1.015,0.377c-0.484,0.528-0.575,1-0.575,4.585
		c0,3.586,0.091,4.058,0.575,4.586c0.228,0.243,0.574,0.377,1.015,0.377c0.438,0,0.786-0.134,1.013-0.377
		c0.484-0.528,0.576-1,0.576-4.586C183.992,77.759,183.9,77.287,183.416,76.759z"/>
	<path d="M192.6,86.398c-0.318,0.288-0.757,0.454-1.332,0.454c-0.591,0-1.105-0.181-1.438-0.528
		c-0.635-0.651-0.757-1.257-0.757-4.98c0-3.723,0.122-4.328,0.757-4.979c0.333-0.346,0.848-0.528,1.438-0.528
		c0.635,0,1.089,0.197,1.422,0.528c0.439,0.454,0.621,1.151,0.621,1.923h-0.605c0-0.589-0.121-1.194-0.484-1.558
		c-0.211-0.214-0.53-0.348-0.953-0.348c-0.439,0-0.787,0.134-1.014,0.377c-0.484,0.528-0.576,1-0.576,4.585
		c0,3.586,0.092,4.058,0.576,4.586c0.227,0.243,0.574,0.377,1.014,0.377c0.423,0,0.742-0.134,0.953-0.346
		c0.363-0.365,0.484-0.969,0.484-1.56h0.605C193.311,85.219,193.098,85.961,192.6,86.398z"/>
	<path d="M201.74,86.732l-2.226-5.646l-1.119,2.194v3.451h-0.605V75.956h0.605v6.146l3.056-6.146h0.667l-2.209,4.434l2.497,6.343
		H201.74z"/>
	<path d="M208.061,76.502v10.23h-0.604v-10.23h-1.801v-0.546h4.207v0.546H208.061z"/>
	<path d="M216.99,86.732l-0.651-3.239h-2.513l-0.636,3.239h-0.666l2.316-10.776h0.545l2.271,10.776H216.99z M215.083,77.198
		l-1.136,5.751h2.286L215.083,77.198z"/>
	<path d="M221.527,86.732V75.956h0.605v10.776H221.527z"/>
	<path d="M227.035,86.732V75.956h0.604v10.23h2.876v0.546H227.035z"/>
	<path d="M237.913,86.293c-0.348,0.348-0.831,0.53-1.528,0.53c-0.65,0-1.164-0.151-1.543-0.53c-0.47-0.483-0.62-0.983-0.62-2.181
		h0.604c0,0.924,0.105,1.395,0.47,1.757c0.241,0.243,0.604,0.395,1.089,0.395c0.53,0,0.878-0.151,1.105-0.395
		c0.408-0.408,0.484-0.939,0.484-1.877c0-1.422-0.228-1.968-1.182-2.359l-1.104-0.454c-1.104-0.454-1.393-1.074-1.393-2.68
		c0-0.909,0.228-1.62,0.682-2.072c0.363-0.365,0.848-0.56,1.482-0.56c0.636,0,1.151,0.194,1.515,0.56
		c0.514,0.529,0.605,1.104,0.605,1.997h-0.605c0-0.742-0.105-1.196-0.454-1.588c-0.243-0.274-0.59-0.426-1.074-0.426
		c-0.454,0-0.771,0.137-1.015,0.363c-0.378,0.365-0.53,0.985-0.53,1.711c0,1.362,0.182,1.785,1.258,2.226l1.104,0.451
		c1.12,0.455,1.317,1.349,1.317,2.817C238.58,85.127,238.382,85.81,237.913,86.293z"/>
</g>
<g>
	<path d="M161.721,1.403l-8.861,66.802h17.96l1.043-12.007h6.215l0.933,12.007h17.751l-9.933-66.802H161.721z M171.642,44.356
		c0.454-5.914,1.564-15.266,3.333-28.057c0.885,11.139,1.767,20.492,2.646,28.057H171.642z M21.635,25.589
		c-2.697-1.594-4.334-2.955-4.91-4.084c-0.603-1.127-0.904-2.807-0.904-5.038c0-1.734,0.268-3.027,0.805-3.881
		c0.537-0.853,1.327-1.281,2.373-1.281c0.962,0,1.65,0.318,2.063,0.949c0.412,0.634,0.619,2.105,0.619,4.415v4.953h16.133v-2.641
		c0-5.309-0.516-9.07-1.547-11.286c-1.031-2.213-3.136-4.049-6.313-5.508C26.776,0.729,22.931,0,18.421,0
		c-4.126,0-7.648,0.668-10.563,2.002C4.941,3.336,2.83,5.187,1.524,7.551c-1.307,2.366-1.96,6.106-1.96,11.223
		c0,3.548,0.461,6.465,1.382,8.748s2.084,4.071,3.487,5.364c1.403,1.292,4.263,3.369,8.582,6.229
		c4.318,2.833,7.028,4.855,8.128,6.065c1.073,1.211,1.609,3.783,1.609,7.714c0,1.791-0.283,3.137-0.846,4.045
		c-0.564,0.907-1.423,1.36-2.579,1.36c-1.155,0-1.96-0.356-2.414-1.072c-0.454-0.715-0.681-2.324-0.681-4.828v-8.128H0.101v4.374
		c0,5.005,0.508,8.872,1.526,11.594c1.018,2.724,3.17,4.966,6.458,6.726c3.287,1.76,7.255,2.643,11.904,2.643
		c4.236,0,7.949-0.765,11.141-2.291c3.191-1.528,5.343-3.417,6.457-5.674c1.114-2.256,1.671-5.762,1.671-10.521
		c0-6.545-1.004-11.291-3.012-14.235C34.237,33.944,29.367,30.178,21.635,25.589z M46.028,68.205h55.443V1.403H46.028V68.205z
		 M235.858,36.766c-1.185-1.431-3.494-2.574-6.934-3.425c3.795-0.358,6.34-1.431,7.633-3.219c1.293-1.789,1.939-5.282,1.939-10.48
		c0-5.693-0.913-9.84-2.742-12.441c-1.831-2.599-4.196-4.213-7.1-4.847c-2.9-0.632-8.449-0.95-16.647-0.95h-12.295v66.802h17.371
		v-30.12c2.392,0,3.871,0.425,4.437,1.278c0.562,0.854,0.844,3.067,0.844,6.643v22.199h16.133V50.587
		c0-5.391-0.145-8.686-0.433-9.882S237.038,38.195,235.858,36.766z M222.364,21.663c0,2.944-0.393,4.684-1.176,5.219
		c-0.783,0.537-2.153,0.805-4.104,0.805V12.833c2.007,0,3.389,0.33,4.146,0.99c0.757,0.661,1.135,2.05,1.135,4.167V21.663z
		 M140.255,32.123c3.603-0.825,6.017-2.006,7.24-3.545c1.224-1.541,1.837-4.262,1.837-8.165c0-5.773-0.868-9.958-2.6-12.556
		c-1.733-2.598-4.01-4.321-6.829-5.174c-2.818-0.852-6.967-1.279-12.439-1.279h-17.33v66.802h20.094
		c6.986,0,11.608-0.398,13.864-1.196c2.255-0.799,3.898-2.286,4.93-4.458c1.032-2.175,1.548-5.519,1.548-10.035v-6.19
		c0-4.35-0.716-7.578-2.146-9.683C146.994,34.538,144.271,33.031,140.255,32.123z M133.199,50.545c0,2.697-0.336,4.387-1.012,5.077
		c-0.673,0.688-2.235,1.071-4.682,1.153v-18.69c2.586,0.083,4.182,0.425,4.785,1.031c0.605,0.605,0.908,2.338,0.908,5.198V50.545z
		 M132.498,26.387c-0.468,0.84-1.556,1.258-3.259,1.258c-0.413,0-0.99,0.016-1.733,0.042V12.833c1.788,0.026,2.992,0.151,3.61,0.37
		c0.618,0.221,1.119,0.75,1.507,1.589c0.384,0.84,0.576,2.305,0.576,4.396C133.199,23.148,132.965,25.549,132.498,26.387z"/>
</g>
<path fill="#FFFFFF" d="M51.521,32.166h19.421V6.962H51.521V32.166z M51.521,63.017h19.421V38.087H51.521V63.017z M76.758,6.962
	v25.203h19.146V6.962H76.758z M76.758,63.017h19.146V38.087H76.758V63.017z"/>
<path d="M61.257,24.751c0.74,0,1.367-0.238,1.841-0.726c0.433-0.446,0.683-1.072,0.683-1.827v-7.491H62.22v7.577
	c0,0.708-0.433,1.057-0.963,1.057c-0.53,0-0.976-0.35-0.976-1.057v-7.577h-1.562v7.491c0,0.755,0.251,1.381,0.684,1.827
	C59.876,24.514,60.517,24.751,61.257,24.751z M87.397,18.854l-1.17-0.476c-0.699-0.277-0.824-0.529-0.824-1.337
	c0-0.431,0.083-0.768,0.265-0.977c0.153-0.167,0.349-0.277,0.67-0.277c0.334,0,0.557,0.11,0.697,0.291
	c0.21,0.265,0.237,0.614,0.237,1.061h1.563c0-0.949-0.182-1.658-0.698-2.162c-0.405-0.391-0.99-0.601-1.785-0.601
	c-0.712,0-1.27,0.222-1.702,0.601c-0.544,0.489-0.809,1.212-0.809,2.106c0,1.535,0.376,2.079,1.38,2.495l1.187,0.489
	c0.767,0.306,0.935,0.573,0.935,1.633c0,0.53-0.055,0.863-0.265,1.102c-0.152,0.182-0.39,0.28-0.754,0.28
	c-0.35,0-0.585-0.114-0.725-0.268c-0.224-0.251-0.279-0.584-0.279-1.114h-1.562c0,1.045,0.167,1.661,0.642,2.134
	c0.417,0.42,1.061,0.656,1.924,0.656c0.878,0,1.535-0.266,1.94-0.656c0.502-0.488,0.641-1.173,0.641-2.189
	C88.904,19.97,88.583,19.342,87.397,18.854z M62.219,49.772h-1.939v-4.185h-1.561v9.928h1.561v-4.352h1.939v4.352h1.563v-9.928
	h-1.563V49.772z M85.549,55.519h1.563v-9.933h-1.563V55.519z"/>
</svg>
